<svg width="96" height="96" viewBox="0 0 480 480" fill="none" xmlns="http://www.w3.org/2000/svg">
<path d="M0.76001 152V0.799988H24.07L86.86 75.56L149.65 0.799988H172.96V152H155.95V20.12L86.86 102.23L17.77 20.12V152H0.76001Z" fill="#FF931F"/>
<path d="M170.39 310V158.8H289.88C294.5 158.8 298.7 159.92 302.48 162.16C306.4 164.4 309.48 167.48 311.72 171.4C313.96 175.18 315.08 179.38 315.08 184V216.13C315.08 218.09 314.8 220.05 314.24 222.01C313.82 223.83 313.19 225.58 312.35 227.26C315.43 231.88 317.74 235.87 319.28 239.23C320.82 242.59 321.59 246.02 321.59 249.52V284.8C321.59 289.42 320.47 293.69 318.23 297.61C315.99 301.39 312.91 304.4 308.99 306.64C305.21 308.88 301.01 310 296.39 310H170.39ZM195.59 292.99H296.39C298.63 292.99 300.52 292.22 302.06 290.68C303.74 289 304.58 287.04 304.58 284.8V249.52C304.58 247.28 303.74 245.39 302.06 243.85C300.52 242.17 298.63 241.33 296.39 241.33H195.59C193.35 241.33 191.39 242.17 189.71 243.85C188.17 245.39 187.4 247.28 187.4 249.52V284.8C187.4 287.04 188.17 289 189.71 290.68C191.39 292.22 193.35 292.99 195.59 292.99ZM195.59 224.32H289.88C292.12 224.32 294.01 223.55 295.55 222.01C297.09 220.33 297.86 218.37 297.86 216.13V184C297.86 181.76 297.09 179.87 295.55 178.33C294.01 176.65 292.12 175.81 289.88 175.81H195.59C193.35 175.81 191.39 176.65 189.71 178.33C188.17 179.87 187.4 181.76 187.4 184V216.13C187.4 218.37 188.17 220.33 189.71 222.01C191.39 223.55 193.35 224.32 195.59 224.32Z" fill="#FF5B1F"/>
<path d="M335.54 456C330.92 456 326.65 454.88 322.73 452.64C318.95 450.4 315.94 447.39 313.7 443.61C311.46 439.69 310.34 435.42 310.34 430.8V330C310.34 325.38 311.46 321.18 313.7 317.4C315.94 313.48 318.95 310.4 322.73 308.16C326.65 305.92 330.92 304.8 335.54 304.8H436.34C440.96 304.8 445.16 305.92 448.94 308.16C452.86 310.4 455.94 313.48 458.18 317.4C460.42 321.18 461.54 325.38 461.54 330V430.8C461.54 435.42 460.42 439.69 458.18 443.61C455.94 447.39 452.86 450.4 448.94 452.64C445.16 454.88 440.96 456 436.34 456H335.54ZM335.54 438.99H436.34C438.58 438.99 440.47 438.22 442.01 436.68C443.69 435 444.53 433.04 444.53 430.8V330C444.53 327.76 443.69 325.87 442.01 324.33C440.47 322.65 438.58 321.81 436.34 321.81H335.54C333.3 321.81 331.34 322.65 329.66 324.33C328.12 325.87 327.35 327.76 327.35 330V430.8C327.35 433.04 328.12 435 329.66 436.68C331.34 438.22 333.3 438.99 335.54 438.99Z" fill="#FFCB1F"/>
</svg>
